# Blender v2.76 (sub 1) OBJ File: 'daginyul.blend'
# www.blender.org
o kocsi_olga_2013_bunny_reduced
v -0.377611 0.215804 -0.261133
v -0.599029 -0.071539 -0.339327
v -0.189905 -0.142149 -0.556268
v -0.021869 0.234613 -0.151233
v -0.611674 0.169176 -0.072682
v -0.416605 -0.599064 -0.368797
v -0.267935 0.279086 0.203031
v 0.010809 -0.064720 -0.395767
v -0.734813 -0.060079 -0.052520
v 0.049325 -0.599064 -0.490232
v -0.615531 -0.486179 -0.191905
v 0.145832 0.296458 -0.005195
v 0.344621 -0.446539 -0.179816
v 0.206346 0.301679 -0.111125
v -0.659004 0.072143 0.186227
v -0.727560 -0.298797 -0.105538
v 0.186543 0.180743 0.240160
v 0.455979 -0.152637 -0.250808
v 0.425248 0.164778 -0.177460
v -0.462449 -0.201220 0.517608
v -0.740667 -0.301492 0.162509
v 0.486407 -0.599064 -0.038180
v -0.814715 -0.406262 -0.139580
v -0.507188 -0.599064 0.063010
v 0.227609 0.425899 -0.118685
v 0.269292 0.530675 0.204370
v -0.059855 -0.014310 0.420176
v 0.429581 -0.257396 0.268078
v 0.428839 0.416534 -0.192203
v -0.884410 -0.339451 0.090935
v 0.273522 0.581455 -0.006832
v 0.494254 0.288953 0.439233
v 0.306499 -0.076079 0.383674
v 0.301496 -0.323698 0.305780
v 0.656967 0.151130 0.067192
v 0.634524 0.498392 0.023876
v -0.092122 -0.161638 0.562187
v -0.702210 -0.518655 0.095620
v 0.529977 -0.565015 0.240833
v 0.336488 0.479762 -0.141153
v 0.035376 0.520862 -0.342933
v 0.474767 0.083104 0.274012
v 0.505842 0.512920 0.253623
v 0.465995 0.557539 -0.071782
v -0.256631 -0.483912 0.521881
v 0.084604 -0.599064 0.350859
v -0.540141 -0.599064 0.255711
v 0.326180 0.703825 -0.706290
v -0.002412 0.721590 -0.585130
v -0.013624 0.734470 -0.319684
v 0.651212 0.285330 0.367373
v 0.437361 0.500169 -0.490555
v -0.002932 -0.450876 0.402272
v -0.335559 -0.599064 0.402770
v 0.507403 0.708063 -0.511628
v -0.052446 -0.599064 0.490303
vt 0.052147 0.297614
vt 0.000000 0.181198
vt 0.078823 0.165089
vt 0.166667 0.326538
vt 1.000000 0.735239
vt 0.929545 0.757952
vt 0.932717 0.638398
vt 0.238671 0.691679
vt 0.306352 0.578369
vt 0.389490 0.700498
vt 0.155609 0.209926
vt 0.270501 0.793913
vt 0.864144 0.697398
vt 0.190149 0.017363
vt 0.080731 0.000000
vt 0.369743 0.534422
vt 0.312931 0.100577
vt 0.231758 0.363467
vt 0.338822 0.838752
vt 0.848439 0.784853
vt 0.823195 0.621278
vt 0.808357 0.555177
vt 0.341451 0.501177
vt 0.452263 0.551004
vt 0.305023 0.205875
vt 0.288848 0.321685
vt 0.452264 0.810945
vt 0.764147 0.676201
vt 0.735150 0.334983
vt 0.706869 0.287099
vt 0.751166 0.274240
vt 0.283073 0.896566
vt 0.291306 0.838752
vt 0.332458 0.896566
vt 0.699377 0.880471
vt 0.620376 0.854783
vt 0.731185 0.795681
vt 0.871462 0.175094
vt 0.830983 0.193332
vt 0.863894 0.135271
vt 0.871462 0.044874
vt 0.756141 0.097376
vt 0.539648 0.093195
vt 0.578827 0.170949
vt 0.509126 0.175434
vt 0.407199 0.195522
vt 0.269427 0.410933
vt 0.553583 0.287256
vt 0.598381 0.444172
vt 0.473698 0.314941
vt 0.731185 0.784853
vt 0.756141 0.455550
vt 0.789655 0.375900
vt 0.809929 0.455550
vt 0.802043 0.946217
vt 0.731185 0.924586
vt 0.802043 0.784853
vt 0.245468 0.838752
vt 0.283073 0.911100
vt 0.238671 0.911100
vt 0.700743 0.956737
vt 0.620816 0.929727
vt 0.227537 0.408447
vt 0.764713 0.175696
vt 0.793633 0.000000
vt 0.843325 0.784853
vt 0.843325 0.945359
vt 0.802043 0.930591
vt 0.403142 0.341788
vt 0.364141 0.462270
vt 0.843325 0.914109
vt 0.885903 0.784853
vt 0.885903 0.939931
vt 0.732200 0.604935
vt 0.409662 0.852433
vt 0.452264 0.838752
vt 0.452264 0.921438
vt 0.668321 0.179721
vt 0.634122 1.000000
vt 0.567358 0.879197
vt 0.249575 0.431793
vt 0.837862 0.271477
vt 0.452264 0.095507
vt 0.036818 0.920937
vt 0.007464 0.806241
vt 0.074719 0.858611
vt 0.040851 0.736289
vt 0.651534 0.129670
vt 0.545784 0.000000
vt 0.294054 0.469786
vt 0.585794 0.325001
vt 0.693394 0.395805
vt 0.741809 0.496733
vt 0.756141 0.114433
vt 0.232340 0.710518
vt 0.197541 0.694500
vt 0.232340 0.501177
vt 0.232340 0.920694
vt 0.198435 0.726955
vt 0.896944 0.000000
vt 0.896944 0.197708
vt 0.871462 0.106851
vt 0.768733 0.286181
vt 0.464799 0.033943
vt 0.096732 0.920937
vt 0.076646 0.702459
vt 0.452263 0.406067
vt 0.110336 0.744192
vt 0.147980 0.802110
vt 0.206324 0.424669
vt 0.756141 0.464601
vt 0.744458 0.413421
vt 0.162116 0.510999
vt 0.191708 0.584761
vt 0.041235 0.501177
vt 0.803989 0.375900
vt 0.000000 0.587329
vt 0.207154 0.501177
vt 0.847209 0.375900
vt 0.847209 0.486715
vt 0.809929 0.435394
vt 0.387573 0.059931
vt 0.191708 0.602940
vt 0.118136 0.479947
vt 0.831862 0.496733
vt 0.994207 0.584391
vt 0.511132 0.815963
vt 0.480426 0.666666
vt 0.569564 0.496733
vt 0.731185 0.622318
vt 0.473330 0.503629
vt 0.452264 0.724115
vt 0.452263 0.089468
vn 0.343400 -0.483700 0.805100
vn -0.183100 -0.680800 0.709200
vn 0.572700 -0.594800 0.564100
vn 0.011500 -0.991100 0.132400
vn -0.331300 -0.618400 0.712600
vn 0.250600 -0.965400 0.072400
vn 0.820100 -0.404900 0.404400
vn 0.243400 0.262400 0.933800
vn 0.155400 -0.961000 0.228600
vn -0.603800 -0.079200 0.793200
vn 0.048400 -0.628700 0.776100
vn 0.462400 -0.854700 -0.235800
vn 0.880200 -0.474300 -0.016800
vn 0.900700 -0.067900 0.429100
vn -0.645100 -0.232500 0.727900
vn 0.774600 0.184300 0.605000
vn 0.263700 -0.959100 0.103400
vn -0.162700 -0.902500 -0.398700
vn -0.237800 0.312300 0.919700
vn -0.111400 -0.571900 0.812700
vn 0.352500 -0.608400 -0.711000
vn 0.960600 -0.197500 -0.195600
vn 0.998600 0.019500 0.049000
vn -0.702200 -0.175300 -0.690100
vn 0.094600 -0.369500 0.924400
vn 0.568100 0.814300 0.119200
vn 0.864700 -0.118300 0.488100
vn 0.930100 -0.247700 -0.271100
vn -0.073000 -0.512300 -0.855700
vn -0.932800 0.359500 0.025100
vn -0.343400 -0.242900 0.907200
vn 0.318600 0.050900 0.946500
vn 0.062900 -0.564500 -0.823000
vn 0.798200 -0.137200 -0.586600
vn 0.254100 -0.967200 0.002700
vn -0.705900 -0.699100 0.114200
vn 0.652700 -0.651700 0.386200
vn 0.413000 0.882700 0.224200
vn 0.343100 -0.001600 0.939300
vn 0.896500 -0.400600 0.189100
vn 0.583000 -0.217900 -0.782700
vn 0.909500 -0.408000 -0.079900
vn -0.502500 0.826500 -0.253700
vn -0.859700 0.507400 0.058700
vn -0.714000 -0.222500 0.663800
vn -0.732800 0.050200 0.678600
vn 0.158600 -0.703000 -0.693300
vn 0.699600 0.320600 -0.638600
vn 0.348800 0.331700 -0.876500
vn -0.344900 0.119300 -0.931000
vn 0.701100 0.713000 0.005300
vn 0.399100 0.902800 0.160500
vn 0.319700 -0.267000 0.909100
vn 0.783800 0.193000 -0.590200
vn 0.286800 0.583000 -0.760200
vn 0.110900 -0.637600 -0.762400
vn -0.024200 -0.971900 -0.234200
vn -0.044200 0.300600 -0.952700
vn -0.402400 0.282100 -0.870900
vn -0.763700 0.112400 -0.635800
vn -0.724400 0.039000 0.688300
vn -0.555000 -0.450800 0.699100
vn -0.609100 -0.477200 -0.633500
vn 0.112200 0.066700 -0.991400
vn 0.606000 0.431100 -0.668600
vn -0.242000 0.031900 -0.969800
vn 0.641600 0.717000 0.272600
vn -0.250100 0.757200 0.603400
vn -0.391600 0.677500 0.622600
vn 0.770900 0.241000 -0.589600
vn -0.317600 0.611600 -0.724600
vn -0.348000 -0.587500 -0.730600
vn -0.570600 -0.761000 0.308700
vn -0.604500 0.094000 -0.791100
vn -0.632500 0.702500 -0.326200
vn -0.997900 -0.063300 0.009200
vn -0.280300 -0.955000 -0.096600
vn -0.973400 0.226100 0.035600
vn -0.410500 0.341000 -0.845700
vn -0.437500 0.328000 -0.837300
vn 0.652900 0.120900 -0.747700
vn 0.604700 -0.736600 -0.303100
vn 0.758400 0.621600 0.195900
vn -0.714800 -0.676500 0.177100
vn 0.974900 0.220300 0.030500
vn -0.488500 -0.872300 0.021700
vn -0.699000 -0.622500 -0.352100
vn 0.575500 -0.797800 -0.179900
vn -0.946800 0.321100 0.020800
vn -0.351000 -0.388800 -0.851900
vn -0.718700 -0.022800 0.694900
vn 0.321300 -0.904800 -0.279400
vn -0.701100 0.301700 0.646100
vn 0.713400 0.209400 0.668700
vn 0.481000 0.117800 0.868800
vn 0.232300 0.617800 -0.751200
vn 0.000000 1.000000 0.000000
vn -0.101500 0.989300 -0.104900
vn -0.173200 -0.540800 -0.823100
vn -0.072000 -0.625800 -0.776600
vn -0.801900 -0.565100 0.194200
s off
f 1/1/1 2/2/1 3/3/1
f 1/1/2 3/3/2 4/4/2
f 1/5/3 5/6/3 2/7/3
f 1/8/4 4/9/4 7/10/4
f 3/3/5 8/11/5 4/4/5
f 1/8/6 7/10/6 5/12/6
f 5/6/7 9/13/7 2/7/7
f 10/14/8 3/3/8 6/15/8
f 4/9/9 12/16/9 7/10/9
f 3/3/10 13/17/10 8/11/10
f 14/18/11 4/4/11 8/11/11
f 7/10/12 15/19/12 5/12/12
f 15/20/13 9/13/13 5/6/13
f 2/7/14 9/13/14 16/21/14
f 3/3/15 10/14/15 13/17/15
f 2/7/16 16/21/16 11/22/16
f 12/16/17 4/9/17 14/23/17
f 12/16/18 17/24/18 7/10/18
f 13/17/19 18/25/19 8/11/19
f 14/18/20 8/11/20 19/26/20
f 7/10/21 20/27/21 15/19/21
f 15/20/22 21/28/22 9/13/22
f 9/13/23 21/28/23 16/21/23
f 56/29/24 53/30/24 46/31/24
f 23/32/25 11/33/25 16/34/25
f 11/35/26 24/36/26 6/37/26
f 14/38/27 25/39/27 12/40/27
f 17/41/28 12/40/28 26/42/28
f 42/43/29 33/44/29 17/45/29
f 13/17/30 28/46/30 18/25/30
f 18/25/31 19/26/31 8/11/31
f 29/47/32 14/18/32 19/26/32
f 27/48/33 20/49/33 7/50/33
f 15/20/34 20/51/34 21/28/34
f 30/52/35 16/53/35 21/54/35
f 39/55/36 34/56/36 13/57/36
f 30/58/37 23/59/37 16/60/37
f 23/61/38 38/62/38 11/35/38
f 29/47/39 25/63/39 14/18/39
f 31/64/40 12/40/40 25/39/40
f 17/41/41 26/42/41 32/65/41
f 12/40/42 31/64/42 26/42/42
f 13/66/43 34/67/43 28/68/43
f 28/46/44 35/69/44 18/25/44
f 18/25/45 35/69/45 19/26/45
f 19/26/46 36/70/46 29/47/46
f 37/71/47 20/72/47 27/73/47
f 38/74/48 21/28/48 20/51/48
f 30/75/49 21/76/49 38/77/49
f 46/31/50 53/30/50 34/78/50
f 38/62/51 23/61/51 30/79/51
f 24/36/52 11/35/52 38/62/52 47/80/52
f 40/81/53 25/63/53 29/47/53
f 25/39/54 41/82/54 31/64/54
f 42/43/55 17/45/55 32/83/55
f 32/84/56 26/85/56 43/86/56
f 43/86/57 26/85/57 31/87/57
f 27/48/58 33/44/58 34/78/58
f 28/88/59 34/78/59 33/44/59
f 28/88/60 42/43/60 35/89/60
f 35/69/61 36/70/61 19/26/61
f 36/70/62 44/90/62 29/47/62
f 37/91/63 27/48/63 34/78/63
f 20/49/64 37/91/64 45/92/64
f 20/49/65 45/92/65 38/93/65
f 46/31/66 34/78/66 39/94/66
f 40/95/67 29/96/67 48/97/67
f 40/95/68 49/98/68 25/99/68
f 25/100/69 49/101/69 41/102/69
f 50/103/70 31/64/70 41/82/70
f 32/83/71 51/104/71 42/43/71
f 32/84/72 43/86/72 51/105/72
f 43/86/73 31/87/73 40/106/73
f 42/43/74 28/88/74 33/44/74
f 42/43/75 51/104/75 35/89/75
f 35/69/76 51/107/76 36/70/76
f 43/86/77 44/108/77 36/109/77
f 29/47/78 44/90/78 52/110/78
f 37/91/79 34/78/79 53/30/79
f 45/92/80 37/91/80 53/30/80
f 47/111/81 38/93/81 45/92/81 54/112/81
f 40/106/82 48/113/82 44/108/82
f 29/96/83 52/114/83 48/97/83
f 40/106/84 31/87/84 49/115/84
f 41/82/85 49/116/85 50/103/85
f 50/117/86 49/115/86 31/87/86
f 51/105/87 43/86/87 36/109/87
f 43/86/88 40/106/88 44/108/88
f 55/118/89 52/110/89 44/90/89
f 45/119/90 53/120/90 56/121/90
f 22/122/91 13/17/91 10/14/91
f 55/123/92 44/108/92 48/113/92
f 52/110/93 55/118/93 48/124/93
f 6/125/94 2/7/94 11/22/94
f 6/125/95 3/126/95 2/7/95
f 54/112/96 45/92/96 56/29/96
f 54/127/97 46/128/97 24/36/97
f 22/129/97 10/130/97 46/128/97
f 6/37/97 24/36/97 10/130/97
f 47/80/97 54/127/97 24/36/97
f 46/128/98 39/131/98 22/129/98
f 54/127/97 56/132/97 46/128/97
f 10/130/97 24/36/97 46/128/97
f 33/44/99 27/48/99 17/45/99
f 17/45/100 27/48/100 7/50/100
f 22/122/101 39/133/101 13/17/101
